HIERARCHY
ROOT Hips
{
	OFFSET -0.001795 -0.223333 0.028219
	CHANNELS 6 Xposition Yposition Zposition Zrotation Yrotation Xrotation 
	JOINT LeftUpLeg
	{
		OFFSET 0.069520 -0.091406 -0.006815
		CHANNELS 3 Zrotation Yrotation Xrotation
		JOINT LeftLeg
		{
			OFFSET 0.034277 -0.375199 -0.004496
			CHANNELS 3 Zrotation Yrotation Xrotation
			JOINT LeftFoot
			{
				OFFSET -0.013596 -0.397961 -0.043693
				CHANNELS 3 Zrotation Yrotation Xrotation
				JOINT LeftToe
				{
					OFFSET 0.026358 -0.055791 0.119288
					CHANNELS 3 Zrotation Yrotation Xrotation
					End Site
					{
						OFFSET 0.000000 0.000000 0.000000
					}
				}
			}
		}
	}
	JOINT RightUpLeg
	{
		OFFSET -0.067670 -0.090522 -0.004320
		CHANNELS 3 Zrotation Yrotation Xrotation
		JOINT RightLeg
		{
			OFFSET -0.038290 -0.382569 -0.008850
			CHANNELS 3 Zrotation Yrotation Xrotation
			JOINT RightFoot
			{
				OFFSET 0.015774 -0.398415 -0.042312
				CHANNELS 3 Zrotation Yrotation Xrotation
				JOINT RightToe
				{
					OFFSET -0.025372 -0.048144 0.123348
					CHANNELS 3 Zrotation Yrotation Xrotation
					End Site
					{
						OFFSET 0.000000 0.000000 0.000000
					}
				}
			}
		}
	}
	JOINT Spine
	{
		OFFSET -0.002533 0.108963 -0.026696
		CHANNELS 3 Zrotation Yrotation Xrotation
		JOINT Spine1
		{
			OFFSET 0.005487 0.135180 0.001092
			CHANNELS 3 Zrotation Yrotation Xrotation
			JOINT Spine2
			{
				OFFSET 0.001457 0.052922 0.025425
				CHANNELS 3 Zrotation Yrotation Xrotation
				JOINT Neck
				{
					OFFSET -0.002778 0.213870 -0.042857
					CHANNELS 3 Zrotation Yrotation Xrotation
					JOINT Head
					{
						OFFSET 0.005152 0.064970 0.051349
						CHANNELS 3 Zrotation Yrotation Xrotation
						End Site
						{
							OFFSET 0.000000 0.000000 0.000000
						}
					}
				}
				JOINT LeftShoulder
				{
					OFFSET 0.078845 0.121749 -0.034090
					CHANNELS 3 Zrotation Yrotation Xrotation
					JOINT LeftArm
					{
						OFFSET 0.090977 0.030469 -0.008868
						CHANNELS 3 Zrotation Yrotation Xrotation
						JOINT LeftForeArm
						{
							OFFSET 0.259612 -0.012772 -0.027456
							CHANNELS 3 Zrotation Yrotation Xrotation
							JOINT LeftHand
							{
								OFFSET 0.249234 0.008986 -0.001171
								CHANNELS 3 Zrotation Yrotation Xrotation
								End Site
								{
									OFFSET 0.000000 0.000000 0.000000
								}
							}
						}
					}
				}
				JOINT RightShoulder
				{
					OFFSET -0.081759 0.118833 -0.038615
					CHANNELS 3 Zrotation Yrotation Xrotation
					JOINT RightArm
					{
						OFFSET -0.096012 0.032551 -0.009143
						CHANNELS 3 Zrotation Yrotation Xrotation
						JOINT RightForeArm
						{
							OFFSET -0.253742 -0.013329 -0.021401
							CHANNELS 3 Zrotation Yrotation Xrotation
							JOINT RightHand
							{
								OFFSET -0.255298 0.007772 -0.005559
								CHANNELS 3 Zrotation Yrotation Xrotation
								End Site
								{
									OFFSET 0.000000 0.000000 0.000000
								}
							}
						}
					}
				}
			}
		}
	}
}
MOTION
Frames: 14
Frame Time: 0.050000
0.020164 0.922210 0.028902 -1.290972 0.946197 1.009481 -0.827957 -0.194026 -2.122899 -1.779400 -0.139687 15.868001 8.102168 17.137352 6.114193 0.000000 0.000000 0.000000 -2.336339 2.011390 -24.912342 -2.772952 1.566237 19.969015 3.645146 1.607863 13.319331 0.000000 0.000000 0.000000 3.699667 -0.558758 6.953564 -0.527894 0.393430 -5.857185 -6.936350 0.699903 8.818553 13.642603 -4.752977 -27.092668 0.000000 0.000000 0.000000 -5.499072 -19.583931 7.085836 -54.998795 -35.984615 10.248076 167.210815 -67.235535 -154.543162 0.000000 0.000000 0.000000 8.123187 12.402817 4.965295 63.164354 40.305631 17.004337 -115.339898 62.775025 -79.570075 0.000000 0.000000 0.000000 
0.012709 0.921564 0.060164 -1.535880 4.420336 1.726875 0.103399 -0.546755 -6.090090 -4.320865 0.282625 20.506916 7.489739 16.212139 6.601855 0.000000 0.000000 0.000000 -0.715959 2.250135 -26.142889 -1.895621 1.169561 20.301465 3.095689 0.224708 15.349377 0.000000 0.000000 0.000000 3.880267 -0.593844 6.893335 -1.766634 0.956130 -5.747653 -5.213347 0.747285 8.103473 13.022868 -3.721603 -29.404602 0.000000 0.000000 0.000000 -5.493104 -19.986961 7.037776 -47.014236 -38.554034 9.335094 113.571940 -68.535467 -88.722557 0.000000 0.000000 0.000000 6.095662 12.859888 5.195610 65.731094 43.844797 20.917327 -97.833456 62.432338 -61.591801 0.000000 0.000000 0.000000 
0.012815 0.928902 0.077719 -1.402546 7.529962 1.394911 1.247454 -0.609742 -7.194132 -4.783365 0.141246 23.473736 4.871777 12.160190 7.812682 0.000000 0.000000 0.000000 -2.243228 1.668441 -24.857787 -0.686084 0.646724 19.826797 2.976033 -0.202702 17.240216 0.000000 0.000000 0.000000 3.673349 -0.631175 7.438079 -1.516601 0.901010 -5.827341 -5.385681 1.970094 8.065542 12.569288 -2.577564 -32.457334 0.000000 0.000000 0.000000 -5.255202 -21.574834 7.282625 -48.590393 -44.339929 12.123032 78.901801 -67.823819 -56.267413 0.000000 0.000000 0.000000 5.720490 14.143878 6.021899 61.527052 49.857216 23.610795 -79.715140 50.909770 -35.814391 0.000000 0.000000 0.000000 
0.013840 0.937067 0.079490 -1.504605 10.470814 0.455939 2.541122 -0.664959 -8.350492 -5.018549 -0.154704 26.707529 3.558199 11.129125 11.399172 0.000000 0.000000 0.000000 -3.312233 1.211504 -23.113620 -0.233410 0.360501 20.166861 2.604298 -1.075350 19.453100 0.000000 0.000000 0.000000 3.983355 -0.690585 7.799010 -2.278175 1.235248 -4.819841 -4.912561 2.953989 7.790158 12.433053 -2.016986 -33.582239 0.000000 0.000000 0.000000 -4.699647 -25.546554 8.463467 -45.784730 -47.161330 12.177836 55.472036 -59.754946 -33.075604 0.000000 0.000000 0.000000 4.708661 15.087636 6.505833 49.901699 51.636338 19.291941 -69.140265 46.371759 -26.047253 0.000000 0.000000 0.000000 
0.015990 0.936633 0.083864 -1.868621 12.601498 -0.495980 4.399433 -0.653900 -9.009719 -6.264685 -0.124906 30.051278 8.663427 19.130380 13.677856 0.000000 0.000000 0.000000 -2.952007 1.155217 -22.700301 -0.625060 0.332378 22.888826 1.628405 -2.192687 18.806264 0.000000 0.000000 0.000000 3.792266 -0.734540 8.446802 -2.110820 1.205382 -5.109361 -4.583694 4.529872 7.839269 12.967450 -1.894548 -33.845891 0.000000 0.000000 0.000000 -3.193356 -26.681736 8.481471 -36.107517 -43.938118 7.588037 45.534473 -54.758770 -24.858097 0.000000 0.000000 0.000000 2.084364 17.365146 7.138292 38.313163 48.706296 12.962438 -61.994134 48.983045 -23.848774 0.000000 0.000000 0.000000 
0.015383 0.927513 0.078123 -2.337104 14.543371 -1.481904 6.662949 -0.655825 -10.141599 -7.952079 0.056526 33.351781 7.257275 17.244667 13.507725 0.000000 0.000000 0.000000 -3.772625 0.871341 -24.327568 0.804556 -0.515628 28.043723 -0.077424 -4.500188 17.129208 0.000000 0.000000 0.000000 3.953405 -0.772682 8.682874 -2.312277 1.309009 -4.807683 -4.413113 6.803410 7.865083 14.728644 -2.542988 -32.631783 0.000000 0.000000 0.000000 -2.666069 -24.426740 7.325766 -28.602264 -40.106294 4.454699 52.231428 -50.362987 -27.736752 0.000000 0.000000 0.000000 0.993081 17.038216 6.964043 27.862316 43.026112 7.217810 -50.170991 44.258083 -15.668747 0.000000 0.000000 0.000000 
0.018836 0.914126 0.072279 -2.895046 16.699773 -2.215438 7.918644 -0.731183 -11.926908 -8.698074 -0.279292 37.965622 5.430663 13.691070 8.857734 0.000000 0.000000 0.000000 -5.430255 0.237383 -27.281153 2.736893 -2.102205 34.835531 -0.750207 -5.147882 14.802570 0.000000 0.000000 0.000000 4.231882 -0.861295 9.204926 -2.852636 1.586388 -5.529502 -3.804423 9.573629 8.090723 15.970965 -2.787842 -32.137389 0.000000 0.000000 0.000000 -2.295537 -18.660232 5.100110 -19.740466 -39.679843 1.872510 55.455385 -47.110605 -28.952034 0.000000 0.000000 0.000000 -0.495605 15.345316 6.098792 19.628295 37.649483 3.651607 -38.232976 37.381833 -8.620113 0.000000 0.000000 0.000000 
0.017025 0.903613 0.069505 -3.043499 18.631205 -3.254227 8.138971 -0.795210 -12.809030 -9.074595 -0.735649 41.224786 5.394881 12.808547 5.673898 0.000000 0.000000 0.000000 -7.038985 -0.473954 -28.456381 3.694022 -3.316718 38.782128 -1.074317 -5.373924 13.167569 0.000000 0.000000 0.000000 4.161454 -0.991939 10.415216 -3.915693 2.079813 -7.005506 -2.689126 12.714876 8.953935 16.975022 -3.050599 -31.105033 0.000000 0.000000 0.000000 -0.950653 -13.966454 3.623155 -13.515517 -39.494213 -0.144831 63.742975 -43.497594 -32.897390 0.000000 0.000000 0.000000 -2.833523 15.008221 5.414789 14.199133 29.502962 1.283245 -27.695906 30.337923 -4.070648 0.000000 0.000000 0.000000 
0.020912 0.896585 0.065174 -2.722294 21.160969 -3.951925 7.742326 -0.880848 -13.168665 -9.482012 -1.170695 42.513487 5.571199 12.511850 3.662963 0.000000 0.000000 0.000000 -8.569851 -1.237744 -28.606427 3.923204 -4.281240 41.445240 -1.520648 -5.842066 11.838795 0.000000 0.000000 0.000000 3.762199 -1.073918 11.340901 -4.364898 2.302833 -7.709701 -2.754128 15.570638 8.780779 18.799469 -3.749913 -30.023073 0.000000 0.000000 0.000000 -0.354370 -10.612429 2.579921 -11.223529 -38.590270 -0.944935 78.325371 -40.930725 -41.825678 0.000000 0.000000 0.000000 -5.364172 14.494120 4.510724 13.751978 21.806998 0.386590 -19.994687 22.982535 -1.538647 0.000000 0.000000 0.000000 
0.031589 0.888553 0.050305 -2.195619 24.175371 -3.830764 7.684896 -1.020653 -14.152499 -10.525823 -1.379176 43.415791 5.906357 12.241679 1.127012 0.000000 0.000000 0.000000 -10.188933 -2.134394 -28.785510 4.740982 -5.652731 43.176935 -3.061704 -8.463161 11.241192 0.000000 0.000000 0.000000 2.977915 -1.057081 11.637479 -5.270633 2.672948 -8.243232 -2.835959 17.333121 8.827590 20.437704 -4.328767 -29.707137 0.000000 0.000000 0.000000 -0.742846 -7.873918 1.477347 -10.637903 -37.393385 -1.099927 92.630836 -36.014830 -48.405368 0.000000 0.000000 0.000000 -6.642954 12.135673 3.214272 15.631731 15.637310 -0.201933 -13.184557 14.956753 -0.238959 0.000000 0.000000 0.000000 
0.026623 0.881177 0.043917 -1.744986 27.241734 -3.262052 8.247443 -1.194395 -15.594544 -11.526129 -1.705817 44.897682 5.036147 9.321690 -1.779390 0.000000 0.000000 0.000000 -11.173817 -2.898964 -29.131135 5.754346 -7.370541 45.093831 -4.985892 -11.859337 9.961137 0.000000 0.000000 0.000000 2.065355 -0.993482 11.619883 -5.634068 2.827535 -9.080452 -3.162188 18.294004 9.373875 21.279405 -4.345142 -30.164016 0.000000 0.000000 0.000000 -0.953175 -4.699685 0.311809 -8.968724 -36.253421 -1.503602 99.587772 -29.205653 -46.803295 0.000000 0.000000 0.000000 -6.335958 8.537206 1.903611 18.959448 7.924247 -1.203912 -8.660680 10.844922 0.135749 0.000000 0.000000 0.000000 
0.018901 0.873205 0.035199 -1.561322 30.140703 -2.556856 9.436317 -1.466025 -18.116031 -13.094462 -1.846831 47.049495 3.814158 5.652296 -3.826583 0.000000 0.000000 0.000000 -11.702392 -3.582629 -29.759668 6.383063 -8.803919 46.375661 -7.140758 -15.985019 7.088073 0.000000 0.000000 0.000000 1.674101 -0.959360 11.406520 -6.228301 3.041177 -9.305204 -3.012238 18.826968 9.466708 21.244247 -4.224567 -29.580625 0.000000 0.000000 0.000000 -1.472124 -1.089410 -1.115438 -6.253108 -34.045056 -1.911198 100.350854 -23.043908 -40.474698 0.000000 0.000000 0.000000 -6.210612 4.544046 0.341651 20.552688 0.255715 -2.200511 -4.409859 6.956476 0.220913 0.000000 0.000000 0.000000 
0.013759 0.868040 0.029532 -1.594307 31.480318 -1.607105 10.767248 -1.755922 -21.084719 -16.197879 -0.831696 48.816432 4.788355 7.403388 -4.852868 0.000000 0.000000 0.000000 -11.724733 -3.898691 -30.539946 6.275031 -8.728483 45.357607 -8.430301 -18.626813 5.683546 0.000000 0.000000 0.000000 1.969373 -0.979426 11.139939 -6.444070 3.102314 -9.637685 -3.043026 19.164763 9.509320 19.879698 -3.415343 -29.058415 0.000000 0.000000 0.000000 -1.355205 2.957057 -2.319544 -6.585865 -30.054622 -1.367150 97.535504 -22.756481 -39.114677 0.000000 0.000000 0.000000 -6.418412 0.330187 -1.427837 22.017708 -5.347878 -2.838314 -3.155588 4.595133 0.214068 0.000000 0.000000 0.000000 
-0.000658 0.870333 0.019032 -1.991632 31.475948 -0.633349 11.597823 -1.909912 -22.910103 -18.353653 0.308256 48.104762 6.094946 10.133988 -5.601524 0.000000 0.000000 0.000000 -10.832625 -3.397657 -29.990162 5.601366 -6.916778 39.981165 -8.587000 -19.058636 4.794007 0.000000 0.000000 0.000000 2.703915 -1.022638 10.713559 -6.255456 3.020197 -10.520073 -2.735850 18.744050 9.568147 18.524429 -2.904131 -28.106850 0.000000 0.000000 0.000000 0.232421 7.274751 -2.720815 -10.631424 -27.150398 -0.522230 97.260889 -27.815734 -45.318503 0.000000 0.000000 0.000000 -5.983011 -4.873422 -3.389402 23.319006 -6.271373 -3.005585 -2.925124 8.060430 0.324579 0.000000 0.000000 0.000000 
